<svg xmlns="http://www.w3.org/2000/svg" viewBox="0 0 900 920">
  <defs>
    <marker id="arrow" markerWidth="10" markerHeight="10" refX="9" refY="3" orient="auto">
      <path d="M0,0 L0,6 L9,3 z" fill="#64748B"/>
    </marker>
  </defs>
  <rect width="900" height="920" fill="#f8fafc"/>
  
  <!-- Title -->
  <text x="450" y="30" font-size="18" fill="#1e293b" font-weight="bold" text-anchor="middle">Demo: Build AI Team with Visual Flow Editor</text>
  
  <!-- Step 1: Create Agents -->
  <rect x="50" y="45" width="800" height="90" rx="8" fill="#DBEAFE" stroke="#2563EB" stroke-width="2"/>
  <text x="70" y="70" font-size="14" fill="#1E40AF" font-weight="bold">Step 1: Create AI Agents</text>
  <text x="70" y="95" font-size="11" fill="#3B82F6">1. Go to Flows tab - Create new flow</text>
  <text x="70" y="115" font-size="11" fill="#3B82F6">2. Drag Agent nodes - Configure CEO, Manager, Worker</text>
  
  <path d="M450,137 L450,155" stroke="#64748B" stroke-width="2" marker-end="url(#arrow)"/>
  
  <!-- Step 2: Define Hierarchy -->
  <rect x="50" y="160" width="800" height="180" rx="8" fill="#DCFCE7" stroke="#16A34A" stroke-width="2"/>
  <text x="70" y="185" font-size="14" fill="#166534" font-weight="bold">Step 2: Define Team Hierarchy</text>
  
  <!-- Hierarchy - Center aligned -->
  <rect x="340" y="205" width="80" height="35" rx="5" fill="#86EFAC" stroke="#22C55E"/>
  <text x="380" y="228" font-size="11" fill="#166534" text-anchor="middle">CEO</text>
  
  <line x1="380" y1="240" x2="380" y2="260" stroke="#22C55E" stroke-width="2"/>
  
  <rect x="290" y="265" width="70" height="30" rx="5" fill="#86EFAC" stroke="#22C55E"/>
  <text x="325" y="285" font-size="10" fill="#166534" text-anchor="middle">Manager1</text>
  <rect x="400" y="265" width="70" height="30" rx="5" fill="#86EFAC" stroke="#22C55E"/>
  <text x="435" y="285" font-size="10" fill="#166534" text-anchor="middle">Manager2</text>
  
  <line x1="325" y1="295" x2="325" y2="310" stroke="#22C55E" stroke-width="1"/>
  <line x1="435" y1="295" x2="435" y2="310" stroke="#22C55E" stroke-width="1"/>
  
  <rect x="240" y="315" width="55" height="25" rx="4" fill="#86EFAC" stroke="#22C55E"/>
  <text x="267" y="332" font-size="9" fill="#166534" text-anchor="middle">Worker1</text>
  <rect x="305" y="315" width="55" height="25" rx="4" fill="#86EFAC" stroke="#22C55E"/>
  <text x="332" y="332" font-size="9" fill="#166534" text-anchor="middle">Worker2</text>
  <rect x="390" y="315" width="55" height="25" rx="4" fill="#86EFAC" stroke="#22C55E"/>
  <text x="417" y="332" font-size="9" fill="#166534" text-anchor="middle">Worker3</text>
  <rect x="455" y="315" width="55" height="25" rx="4" fill="#86EFAC" stroke="#22C55E"/>
  <text x="482" y="332" font-size="9" fill="#166534" text-anchor="middle">Worker4</text>
  
  <path d="M450,345 L450,365" stroke="#64748B" stroke-width="2" marker-end="url(#arrow)"/>
  
  <!-- Step 3: Add Tools -->
  <rect x="50" y="370" width="800" height="85" rx="8" fill="#FEF3C7" stroke="#F59E0B" stroke-width="2"/>
  <text x="70" y="395" font-size="14" fill="#92400E" font-weight="bold">Step 3: Add Tools and Capabilities</text>
  <text x="70" y="420" font-size="11" fill="#F59E0B">1. Add Tool nodes: Search, Calculator, Code Review, File</text>
  <text x="70" y="440" font-size="11" fill="#F59E0B">2. Assign tools to workers by role</text>
  
  <!-- Tools -->
  <rect x="500" y="385" width="65" height="50" rx="5" fill="#FDE68A" stroke="#F59E0B"/>
  <text x="532" y="415" font-size="9" fill="#92400E" text-anchor="middle">Search</text>
  <rect x="575" y="385" width="65" height="50" rx="5" fill="#FDE68A" stroke="#F59E0B"/>
  <text x="607" y="415" font-size="9" fill="#92400E" text-anchor="middle">Calc</text>
  <rect x="650" y="385" width="65" height="50" rx="5" fill="#FDE68A" stroke="#F59E0B"/>
  <text x="682" y="415" font-size="9" fill="#92400E" text-anchor="middle">Review</text>
  <rect x="725" y="385" width="65" height="50" rx="5" fill="#FDE68A" stroke="#F59E0B"/>
  <text x="757" y="415" font-size="9" fill="#92400E" text-anchor="middle">File</text>
  
  <path d="M450,457 L450,477" stroke="#64748B" stroke-width="2" marker-end="url(#arrow)"/>
  
  <!-- Step 4: Set Triggers -->
  <rect x="50" y="482" width="800" height="75" rx="8" fill="#FCE7F3" stroke="#EC4899" stroke-width="2"/>
  <text x="70" y="507" font-size="14" fill="#9D174D" font-weight="bold">Step 4: Set Triggers</text>
  <text x="70" y="532" font-size="11" fill="#EC4899">1. Add Trigger: Message, Schedule, or Webhook</text>
  <text x="70" y="550" font-size="11" fill="#EC4899">2. Connect to CEO to start workflow</text>
  
  <!-- Trigger -->
  <rect x="600" y="495" width="90" height="40" rx="5" fill="#FBCFE8" stroke="#EC4899"/>
  <text x="645" y="520" font-size="11" fill="#9D174D" text-anchor="middle">Trigger</text>
  
  <path d="M450,560 L450,580" stroke="#64748B" stroke-width="2" marker-end="url(#arrow)"/>
  
  <!-- Step 5: Execute -->
  <rect x="50" y="585" width="800" height="90" rx="8" fill="#FEE2E2" stroke="#EF4444" stroke-width="2"/>
  <text x="70" y="610" font-size="14" fill="#991B1B" font-weight="bold">Step 5: Execute and Monitor</text>
  <text x="70" y="635" font-size="11" fill="#EF4444">1. Click Run to execute workflow</text>
  <text x="70" y="655" font-size="11" fill="#EF4444">2. View real-time logs in Logs tab</text>
  
  <!-- Run Button -->
  <rect x="500" y="600" width="100" height="45" rx="6" fill="#EF4444" stroke="#DC2626"/>
  <text x="550" y="628" font-size="12" fill="white" font-weight="bold" text-anchor="middle">Run</text>
  
  <!-- Success -->
  <rect x="620" y="600" width="100" height="45" rx="6" fill="#DCFCE7" stroke="#16A34A"/>
  <text x="670" y="628" font-size="12" fill="#166534" text-anchor="middle">Success</text>
  
  <path d="M450,678 L450,700" stroke="#64748B" stroke-width="2" marker-end="url(#arrow)"/>
  
  <!-- Result -->
  <rect x="50" y="705" width="800" height="55" rx="8" fill="#F1F5F9" stroke="#475569" stroke-width="2"/>
  <text x="70" y="730" font-size="14" fill="#1E293B" font-weight="bold">Result: Autonomous AI Team Running</text>
  <text x="70" y="750" font-size="10" fill="#6B7280">CEO assigns - Managers coordinate - Workers execute - Results delivered</text>
</svg>
