<svg xmlns="http://www.w3.org/2000/svg" viewBox="0 0 512 512">
  <defs>
    <linearGradient id="horse" x1="0%" y1="0%" x2="100%" y2="100%">
      <stop offset="0%" style="stop-color:#2563EB"/>
      <stop offset="100%" style="stop-color:#1D4ED8"/>
    </linearGradient>
  </defs>
  
  <!-- Background -->
  <rect width="512" height="512" rx="100" fill="url(#horse)"/>
  
  <!-- Horse Head - Minimalist -->
  <g fill="#FFFFFF">
    <!-- Head shape -->
    <path d="M200 420 C180 400 160 360 170 300 C180 240 220 180 280 150 C340 120 400 130 440 180 C480 230 480 300 460 360 C440 420 400 460 340 480 C280 500 220 480 200 420Z"/>
    
    <!-- Snout -->
    <path d="M380 280 C420 300 450 340 460 390 C470 440 450 480 400 500 C350 520 300 500 280 460 C260 420 260 380 280 340 C300 300 340 280 380 280Z"/>
    
    <!-- Eye -->
    <circle cx="280" cy="250" r="18"/>
    <circle cx="280" cy="250" r="10" fill="#1D4ED8"/>
    <circle cx="284" cy="246" r="4" fill="white"/>
    
    <!-- Ear -->
    <path d="M220 140 L240 80 L270 140Z"/>
    <path d="M240 130 L255 90 L280 135Z" fill="#2563EB"/>
  </g>
  
  <!-- Mane - Flowing -->
  <path d="M180 180 C140 200 100 240 80 300 C60 360 60 420 80 460 C70 440 60 400 70 360 C80 320 100 280 130 250 C100 260 70 290 50 340 C40 380 40 420 60 450 L80 440 C65 400 70 360 90 320 C110 280 150 250 180 230 C150 220 130 200 120 170 C110 140 120 110 140 90 C160 70 200 70 220 90 C230 110 230 140 220 160 C230 140 250 120 280 110 C310 100 340 110 360 140 C370 160 370 190 360 220 C380 190 410 180 440 190 C470 200 490 240 490 280 C490 320 470 360 440 380 C460 350 470 310 470 270 C470 230 450 190 420 170 C440 180 450 200 450 220 C450 200 440 180 420 160" 
        fill="#93C5FD" opacity="0.8"/>
  
  <!-- AI Crown -->
  <g fill="#FFD700">
    <polygon points="280,40 295,75 335,75 305,100 318,140 280,115 242,140 255,100 225,75 265,75"/>
  </g>
</svg>
