<svg xmlns="http://www.w3.org/2000/svg" viewBox="0 0 512 512">
  <defs>
    <linearGradient id="grad" x1="0%" y1="0%" x2="100%" y2="100%">
      <stop offset="0%" style="stop-color:#FFB347"/>
      <stop offset="100%" style="stop-color:#FFCC33"/>
    </linearGradient>
  </defs>
  
  <!-- Background -->
  <rect width="512" height="512" rx="60" fill="url(#grad)"/>
  
  <!-- Horse Head - Line Style -->
  <g fill="none" stroke="white" stroke-width="14" stroke-linecap="round" stroke-linejoin="round">
    <!-- Main head shape -->
    <path d="M340 400 C380 420 400 370 400 320 C400 240 360 170 300 150 C240 130 170 150 150 210 C130 270 150 350 190 410 C210 450 270 490 330 490 C370 490 400 470 410 430"/>
    
    <!-- Ear -->
    <path d="M230 150 L210 70 L260 130"/>
    <path d="M280 140 L290 60 L330 125"/>
    
    <!-- Eye -->
    <circle cx="270" cy="250" r="12" fill="white" stroke="none"/>
    
    <!-- Nostril -->
    <circle cx="370" cy="350" r="8" fill="white" stroke="none"/>
  </g>
</svg>
