<svg xmlns="http://www.w3.org/2000/svg" viewBox="0 0 512 512">
  <defs>
    <linearGradient id="grad1" x1="0%" y1="0%" x2="100%" y2="100%">
      <stop offset="0%" style="stop-color:#667eea;stop-opacity:1" />
      <stop offset="100%" style="stop-color:#764ba2;stop-opacity:1" />
    </linearGradient>
    <linearGradient id="grad2" x1="0%" y1="0%" x2="100%" y2="100%">
      <stop offset="0%" style="stop-color:#f093fb;stop-opacity:1" />
      <stop offset="100%" style="stop-color:#f5576c;stop-opacity:1" />
    </linearGradient>
  </defs>
  
  <!-- Background Circle -->
  <circle cx="256" cy="256" r="240" fill="url(#grad1)"/>
  
  <!-- Flow Lines -->
  <g fill="none" stroke="white" stroke-width="16" stroke-linecap="round" opacity="0.9">
    <!-- C letter flow -->
    <path d="M 340 180 A 100 100 0 1 0 340 332"/>
    <circle cx="340" cy="180" r="12" fill="white"/>
    <circle cx="340" cy="332" r="12" fill="white"/>
    
    <!-- F letter flow -->
    <path d="M 172 160 L 172 352"/>
    <path d="M 172 200 L 250 200"/>
    <path d="M 172 260 L 220 260"/>
    <circle cx="172" cy="160" r="12" fill="white"/>
    <circle cx="250" cy="200" r="10" fill="url(#grad2)"/>
    <circle cx="220" cy="260" r="10" fill="url(#grad2)"/>
    
    <!-- Connection dots -->
    <circle cx="256" cy="256" r="20" fill="white"/>
  </g>
  
  <!-- AI Sparkle -->
  <g fill="white" opacity="0.8">
    <polygon points="256,80 263,100 283,100 268,112 274,132 256,120 238,132 244,112 229,100 249,100"/>
  </g>
</svg>
